<svg width="16" height="16" viewBox="0 0 16 16" fill="none" xmlns="http://www.w3.org/2000/svg">
<path d="M7.99984 7.99992C9.84079 7.99992 11.3332 6.50753 11.3332 4.66658C11.3332 2.82564 9.84079 1.33325 7.99984 1.33325C6.15889 1.33325 4.6665 2.82564 4.6665 4.66658C4.6665 6.50753 6.15889 7.99992 7.99984 7.99992Z" stroke="black" stroke-width="1.5" stroke-linecap="round" stroke-linejoin="round"/>
<path d="M2.27344 14.6667C2.27344 12.0867 4.8401 10 8.0001 10C8.6401 10 9.26011 10.0867 9.84011 10.2467" stroke="black" stroke-width="1.5" stroke-linecap="round" stroke-linejoin="round"/>
<path d="M14.6668 12C14.6668 12.2134 14.6402 12.42 14.5868 12.62C14.5268 12.8867 14.4202 13.1467 14.2802 13.3734C13.8202 14.1467 12.9735 14.6667 12.0002 14.6667C11.3135 14.6667 10.6935 14.4067 10.2268 13.98C10.0268 13.8067 9.85349 13.6 9.72015 13.3734C9.47349 12.9734 9.3335 12.5 9.3335 12C9.3335 11.28 9.62017 10.6201 10.0868 10.1401C10.5735 9.64006 11.2535 9.33337 12.0002 9.33337C12.7868 9.33337 13.5002 9.67339 13.9802 10.2201C14.4068 10.6934 14.6668 11.32 14.6668 12Z" stroke="black" stroke-width="1.5" stroke-miterlimit="10" stroke-linecap="round" stroke-linejoin="round"/>
<path d="M12.9935 11.9866H11.0068" stroke="black" stroke-width="1.5" stroke-miterlimit="10" stroke-linecap="round" stroke-linejoin="round"/>
<path d="M12 11.0133V13.0066" stroke="black" stroke-width="1.5" stroke-miterlimit="10" stroke-linecap="round" stroke-linejoin="round"/>
</svg>
